<svg xmlns="http://www.w3.org/2000/svg" viewBox="-1400 -1400 36667 36667">
  <style>
    .claw {
      transform-origin: 16933px 16933px;
      animation: breathe 6s ease-in-out infinite;
    }
    @keyframes breathe {
      0%, 100% { transform: scale(1); }
      50% { transform: scale(1.08); }
    }
  </style>
  <g class="claw">
    <path fill="#FA4615" d="M27346.54 14197.61l-4923.89 0c-3904.23,0 -7098.72,-3194.49 -7098.72,-7098.73l0 -4923.89c0,-1196.23 978.78,-2175.01 2175.01,-2175.01l9847.6 0c1196.23,0 2175.01,978.78 2175.01,2175.01l0 9847.6c0,1196.23 -978.78,2175.02 -2175.01,2175.02z"/>
    <path fill="#FA4615" d="M7098.91 18542.73l-4923.89 0c-1196.23,0 -2175.01,-978.78 -2175.01,-2175.02l0 -9847.6c0,-1196.23 978.78,-2175.01 2175.01,-2175.01l9847.6 0c1196.23,0 2175.01,978.78 2175.01,2175.01l0 4923.89c0,3904.24 -3194.48,7098.73 -7098.72,7098.73z"/>
    <path fill="#FA4615" d="M18542.76 26767.74l0 4923.9c0,1196.23 -978.79,2175.01 -2175.02,2175.01l-9847.6 0c-1196.23,0 -2175.01,-978.78 -2175.01,-2175.01l0 -9847.61c0,-1196.23 978.78,-2175.01 2175.01,-2175.01l4923.89 0c3904.24,0 7098.73,3194.49 7098.73,7098.72z"/>
    <rect fill="#FA4615" x="19149.59" y="15323.8" width="14716.99" height="14717" rx="7358.59" ry="7358.59"/>
  </g>
</svg>
